<?xml version="1.0" encoding="UTF-8" ?>
<!DOCTYPE svg PUBLIC "-//W3C//DTD SVG 1.1//EN" "http://www.w3.org/Graphics/SVG/1.1/DTD/svg11.dtd">
<svg width="1517pt" height="659pt" viewBox="0 0 1517 659" version="1.1" xmlns="http://www.w3.org/2000/svg">
<path fill="#ffffff" d=" M 0.00 0.00 L 1517.00 0.00 L 1517.00 659.00 L 0.00 659.00 L 0.00 0.00 Z" />
<path fill="#46b754" d=" M 421.19 4.38 C 450.12 3.27 478.94 6.70 507.53 10.77 L 507.55 11.21 C 507.85 55.48 507.67 99.76 507.64 144.03 C 507.63 144.45 507.60 145.29 507.58 145.71 C 477.15 139.83 446.14 135.22 415.07 137.12 C 359.03 139.50 303.03 152.39 252.82 177.71 C 217.69 195.84 184.83 220.31 162.19 253.14 C 146.66 275.27 136.79 301.81 136.73 329.02 C 136.56 355.06 145.47 380.56 159.66 402.19 C 182.07 436.38 215.57 461.82 251.44 480.59 C 304.96 507.96 365.15 520.90 425.02 522.23 C 452.80 522.88 480.38 518.47 507.58 513.30 C 507.60 513.71 507.63 514.55 507.64 514.97 C 507.67 559.24 507.84 603.52 507.56 647.79 L 507.54 648.23 C 482.83 651.67 458.00 654.89 433.00 654.79 C 362.17 654.60 290.97 641.97 225.43 614.66 C 171.27 592.07 120.63 559.55 80.79 516.18 C 56.22 489.48 35.94 458.62 22.57 424.82 C 5.07 381.04 -0.23 332.45 7.94 285.99 C 17.04 232.56 43.74 183.04 80.31 143.39 C 106.45 114.69 137.52 90.72 171.04 71.22 C 246.68 27.46 334.16 6.13 421.19 4.38 Z" />
<path fill="#597fbf" d=" M 507.55 11.21 C 521.81 12.91 535.87 16.13 549.95 18.93 C 593.03 28.12 635.57 39.65 677.77 52.20 C 770.09 79.78 860.86 112.26 951.08 146.01 C 985.62 206.43 1020.13 266.87 1054.76 327.23 C 1002.97 306.47 951.07 285.94 898.84 266.31 C 817.51 235.74 735.60 206.61 652.46 181.31 C 604.73 166.93 556.60 153.57 507.64 144.03 C 507.67 99.76 507.85 55.48 507.55 11.21 Z" />
<path fill="#a92024" d=" M 252.82 177.71 C 303.03 152.39 359.03 139.50 415.07 137.12 C 446.14 135.22 477.15 139.83 507.58 145.71 C 507.60 145.29 507.63 144.45 507.64 144.03 C 556.60 153.57 604.73 166.93 652.46 181.31 C 735.60 206.61 817.51 235.74 898.84 266.31 C 951.07 285.94 1002.97 306.47 1054.76 327.23 C 1055.75 328.65 1055.67 330.32 1054.78 331.76 C 998.19 354.50 941.43 376.83 884.29 398.14 C 813.77 424.44 742.81 449.61 670.95 472.01 C 617.15 488.61 562.94 504.20 507.64 514.97 C 507.63 514.55 507.60 513.71 507.58 513.30 C 480.38 518.47 452.80 522.88 425.02 522.23 C 365.15 520.90 304.96 507.96 251.44 480.59 C 215.57 461.82 182.07 436.38 159.66 402.19 C 145.47 380.56 136.56 355.06 136.73 329.02 C 136.79 301.81 146.66 275.27 162.19 253.14 C 184.83 220.31 217.69 195.84 252.82 177.71 Z" />
<path fill="#f3c218" d=" M 951.08 146.01 C 982.19 157.64 1013.08 169.89 1044.10 181.78 C 1051.86 184.44 1059.12 188.29 1066.82 191.14 C 1111.36 208.81 1155.67 227.07 1199.88 245.58 C 1264.50 272.85 1328.55 301.43 1392.89 329.35 C 1375.47 337.62 1357.55 344.90 1339.94 352.77 C 1302.28 369.18 1264.69 385.74 1226.96 401.96 C 1171.45 425.54 1115.69 448.51 1059.63 470.73 C 1051.19 474.85 1042.26 477.80 1033.56 481.29 C 1006.05 491.82 978.68 502.72 951.08 512.99 C 985.63 452.57 1020.12 392.12 1054.78 331.76 C 1055.67 330.32 1055.75 328.65 1054.76 327.23 C 1020.13 266.87 985.62 206.43 951.08 146.01 Z" />
<path fill="#a92024" d=" M 1453.57 278.82 C 1472.47 276.06 1492.67 284.69 1503.40 300.58 C 1516.13 318.26 1515.98 344.15 1502.77 361.54 C 1493.15 375.08 1476.61 383.12 1460.07 382.82 C 1442.88 382.84 1425.99 373.67 1416.73 359.17 C 1405.58 342.28 1405.52 318.85 1416.83 302.02 C 1424.81 289.34 1438.75 280.73 1453.57 278.82 Z" />
<path fill="#ffffff" d=" M 1452.56 331.01 C 1453.17 327.31 1455.83 323.16 1459.99 323.18 C 1465.32 322.31 1470.32 328.83 1467.55 333.64 C 1465.62 338.87 1457.96 339.73 1454.64 335.42 C 1453.80 334.01 1453.20 332.48 1452.56 331.01 Z" />
<path fill="#597fbf" d=" M 884.29 398.14 C 941.43 376.83 998.19 354.50 1054.78 331.76 C 1020.12 392.12 985.63 452.57 951.08 512.99 C 857.04 548.19 762.39 581.99 666.01 610.27 C 619.13 623.88 571.85 636.39 523.82 645.26 C 518.38 646.04 513.05 647.50 507.56 647.79 C 507.84 603.52 507.67 559.24 507.64 514.97 C 562.94 504.20 617.15 488.61 670.95 472.01 C 742.81 449.61 813.77 424.44 884.29 398.14 Z" />
</svg>
